<svg width="45" height="52" viewBox="0 0 45 52" fill="none" xmlns="http://www.w3.org/2000/svg">
<path d="M42.6844 35.7561H11.2327C10.6369 35.7561 10.0655 35.4893 9.6442 35.0143C9.22289 34.5394 8.9862 33.8952 8.9862 33.2235C8.9862 32.5518 9.22289 31.9076 9.6442 31.4326C10.0655 30.9576 10.6369 30.6908 11.2327 30.6908H34.6867C36.1889 30.6909 37.648 30.1253 38.8324 29.0837C40.0168 28.0421 40.8587 26.5842 41.2242 24.9417L44.931 8.50466C45.0151 8.13086 45.0224 7.74034 44.9524 7.36287C44.8823 6.9854 44.7367 6.63096 44.5266 6.32657C44.3081 6.01438 44.0275 5.76457 43.7075 5.59737C43.3874 5.43017 43.037 5.35027 42.6844 5.36416H10.6936C10.2301 3.88622 9.37245 2.60608 8.23824 1.69924C7.10404 0.79239 5.74879 0.303234 4.35831 0.298828H2.24655C1.65073 0.298828 1.07931 0.565662 0.657999 1.04063C0.236689 1.5156 0 2.15979 0 2.83149C0 3.5032 0.236689 4.14739 0.657999 4.62236C1.07931 5.09733 1.65073 5.36416 2.24655 5.36416H4.35831C4.8715 5.3473 5.37432 5.52912 5.78308 5.87934C6.19183 6.22956 6.48185 6.72705 6.60485 7.28899L6.73965 8.50466L10.6262 25.6255C8.83871 25.7162 7.15641 26.6036 5.94936 28.0927C4.7423 29.5817 4.10938 31.5503 4.18981 33.5654C4.27025 35.5805 5.05746 37.4771 6.37827 38.8378C7.69907 40.1986 9.44528 40.9122 11.2327 40.8215H11.6371C11.2676 41.9691 11.1489 43.2002 11.291 44.4105C11.4331 45.6209 11.8318 46.7748 12.4533 47.7745C13.0749 48.7743 13.901 49.5905 14.8617 50.154C15.8224 50.7175 16.8894 51.0117 17.9724 51.0117C19.0554 51.0117 20.1224 50.7175 21.0831 50.154C22.0438 49.5905 22.8699 48.7743 23.4914 47.7745C24.113 46.7748 24.5117 45.6209 24.6538 44.4105C24.7959 43.2002 24.6771 41.9691 24.3077 40.8215H29.6095C29.24 41.9691 29.1213 43.2002 29.2634 44.4105C29.4055 45.6209 29.8042 46.7748 30.4257 47.7745C31.0473 48.7743 31.8734 49.5905 32.8341 50.154C33.7948 50.7175 34.8618 51.0117 35.9448 51.0117C37.0277 51.0117 38.0948 50.7175 39.0555 50.154C40.0162 49.5905 40.8423 48.7743 41.4638 47.7745C42.0854 46.7748 42.4841 45.6209 42.6262 44.4105C42.7683 43.2002 42.6495 41.9691 42.2801 40.8215H42.6844C43.2803 40.8215 43.8517 40.5546 44.273 40.0797C44.6943 39.6047 44.931 38.9605 44.931 38.2888C44.931 37.6171 44.6943 36.9729 44.273 36.4979C43.8517 36.023 43.2803 35.7561 42.6844 35.7561ZM39.8088 10.4295L36.8659 23.7007C36.7429 24.2626 36.4529 24.7601 36.0441 25.1103C35.6353 25.4605 35.1325 25.6423 34.6193 25.6255H15.2316L11.8618 10.4295H39.8088ZM17.9724 45.8868C17.5281 45.8868 17.0937 45.7383 16.7243 45.46C16.3548 45.1817 16.0669 44.7861 15.8969 44.3233C15.7268 43.8606 15.6823 43.3513 15.769 42.86C15.8557 42.3688 16.0697 41.9175 16.3838 41.5633C16.698 41.2091 17.0983 40.9679 17.5341 40.8701C17.9699 40.7724 18.4216 40.8226 18.8321 41.0143C19.2426 41.206 19.5935 41.5306 19.8403 41.9471C20.0872 42.3636 20.2189 42.8532 20.2189 43.3541C20.2189 44.0258 19.9823 44.67 19.5609 45.145C19.1396 45.62 18.5682 45.8868 17.9724 45.8868ZM35.9448 45.8868C35.5005 45.8868 35.0661 45.7383 34.6967 45.46C34.3272 45.1817 34.0393 44.7861 33.8692 44.3233C33.6992 43.8606 33.6547 43.3513 33.7414 42.86C33.8281 42.3688 34.042 41.9175 34.3562 41.5633C34.6704 41.2091 35.0707 40.9679 35.5065 40.8701C35.9423 40.7724 36.394 40.8226 36.8045 41.0143C37.215 41.206 37.5659 41.5306 37.8127 41.9471C38.0596 42.3636 38.1913 42.8532 38.1913 43.3541C38.1913 44.0258 37.9546 44.67 37.5333 45.145C37.112 45.62 36.5406 45.8868 35.9448 45.8868Z" fill="black"/>
</svg>
