<svg width="52" height="40" viewBox="0 0 52 40" fill="none" xmlns="http://www.w3.org/2000/svg">
<path d="M48.2825 0H2.81009C2.06481 0 1.35005 0.228 0.823057 0.633843C0.296063 1.03969 0 1.59012 0 2.16407V37.1827C0 37.4669 0.0726854 37.7483 0.213906 38.0109C0.355126 38.2734 0.562116 38.512 0.823057 38.7129C1.084 38.9139 1.39378 39.0733 1.73472 39.1821C2.07565 39.2908 2.44107 39.3468 2.81009 39.3468H27.2834V24.0999H20.6414V18.1979H27.2834V13.7714C27.1459 12.7321 27.3052 11.6823 27.7502 10.6955C28.1953 9.70872 28.9153 8.80885 29.8597 8.05903C30.8041 7.30921 31.9502 6.72759 33.2174 6.35497C34.4846 5.98235 35.8424 5.82775 37.1954 5.90202C39.1837 5.89259 41.1711 5.97142 43.1477 6.1381V11.4499H39.0858C35.867 11.4499 35.2539 12.6303 35.2539 14.3419V18.1389H42.9178L41.9215 24.0409H35.2539V39.3468H48.2825C48.6515 39.3468 49.0169 39.2908 49.3579 39.1821C49.6988 39.0733 50.0086 38.9139 50.2695 38.7129C50.5305 38.512 50.7375 38.2734 50.8787 38.0109C51.0199 37.7483 51.0926 37.4669 51.0926 37.1827V2.16407C51.0926 1.87988 51.0199 1.59848 50.8787 1.33592C50.7375 1.07336 50.5305 0.834795 50.2695 0.633843C50.0086 0.43289 49.6988 0.273485 49.3579 0.16473C49.0169 0.0559756 48.6515 0 48.2825 0Z" fill="black"/>
</svg>
