<svg width="45" height="45" viewBox="0 0 45 45" fill="none" xmlns="http://www.w3.org/2000/svg">
<path d="M44.5288 24.9243L23.6361 0.549282C23.0084 -0.183094 21.9914 -0.183094 21.3635 0.549282L0.470846 24.9243C0.0110467 25.4608 -0.126363 26.2665 0.122421 26.9677C0.371364 27.668 0.957483 28.125 1.60724 28.125C4.27002 28.125 6.42862 30.2836 6.42862 32.9463V43.125C6.42862 44.1604 7.14829 45 8.03575 45H18.0128H27.3213H36.964C37.8523 45 38.5711 44.1604 38.5711 43.125V32.9463C38.5711 30.2836 40.7298 28.125 43.3925 28.125C44.0423 28.125 44.6292 27.668 44.8772 26.9677C45.1268 26.2665 44.9887 25.4608 44.5288 24.9243ZM22.4999 41.25C20.7247 41.25 19.2856 39.8109 19.2856 38.0357V31.875C19.2856 29.8068 20.7272 28.125 22.4999 28.125C24.2717 28.125 25.7141 29.8068 25.7141 31.875V38.0357C25.7141 39.8109 24.2751 41.25 22.4999 41.25ZM36.964 24.375C36.0758 24.375 35.3569 25.2146 35.3569 26.25V38.0357C35.3569 39.8109 33.9178 41.25 32.1426 41.25C30.3675 41.25 28.9284 39.8109 28.9284 38.0357V31.875C28.9284 27.7395 26.0454 24.375 22.4999 24.375C18.9552 24.375 16.0714 27.7395 16.0714 31.875V38.0357C16.0714 39.8109 14.6323 41.25 12.8571 41.25C11.0819 41.25 9.64288 39.8109 9.64288 38.0357V26.25C9.64288 25.2146 8.9232 24.375 8.03575 24.375C7.03422 24.375 6.49392 23.2002 7.1457 22.4398L18.7036 8.95542C20.6991 6.62734 24.3007 6.62734 26.2962 8.95543L37.8541 22.4398C38.5059 23.2002 37.9655 24.375 36.964 24.375Z" fill="black"/>
</svg>
