<svg width="52" height="45" viewBox="0 0 52 45" fill="none" xmlns="http://www.w3.org/2000/svg">
<path d="M25.7111 16.6437C24.45 16.6437 23.2172 16.9656 22.1686 17.5687C21.12 18.1719 20.3027 19.0291 19.8201 20.0321C19.3375 21.035 19.2112 22.1387 19.4573 23.2034C19.7033 24.2681 20.3106 25.2462 21.2023 26.0138C22.0941 26.7814 23.2303 27.3042 24.4671 27.516C25.704 27.7278 26.9861 27.6191 28.1512 27.2036C29.3164 26.7882 30.3122 26.0847 31.0129 25.182C31.7135 24.2794 32.0875 23.2182 32.0875 22.1326C32.0875 21.4118 31.9225 20.698 31.6021 20.0321C31.2817 19.3661 30.812 18.761 30.2199 18.2513C29.6278 17.7417 28.9249 17.3373 28.1512 17.0615C27.3776 16.7857 26.5485 16.6437 25.7111 16.6437ZM51.2422 11.2212C51.2287 9.51204 50.8631 7.81849 50.1624 6.21925C49.6463 5.04901 48.8478 3.98628 47.8196 3.10118C46.7914 2.21608 45.5569 1.52874 44.1974 1.0845C42.3396 0.481303 40.3722 0.166572 38.3867 0.154928C35.07 -1.4841e-07 34.0929 0 25.7111 0C17.3293 0 16.3523 -1.4841e-07 13.0355 0.154928C11.05 0.166572 9.08263 0.481303 7.22482 1.0845C5.86537 1.52874 4.63081 2.21608 3.6026 3.10118C2.57439 3.98628 1.77591 5.04901 1.25984 6.21925C0.559124 7.81849 0.193504 9.51204 0.179978 11.2212C-1.72406e-07 14.0763 0 14.9173 0 22.1326C0 29.3478 -1.72406e-07 30.1888 0.179978 33.0439C0.207653 34.7591 0.572778 36.4578 1.25984 38.068C1.77362 39.2329 2.57144 40.2895 3.59956 41.1666C4.62336 42.057 5.86056 42.7443 7.22482 43.1806C9.08263 43.7838 11.05 44.0986 13.0355 44.1102C16.3523 44.2651 17.3293 44.2651 25.7111 44.2651C34.0929 44.2651 35.07 44.2651 38.3867 44.1102C40.3722 44.0986 42.3396 43.7838 44.1974 43.1806C45.5617 42.7443 46.7989 42.057 47.8227 41.1666C48.8508 40.2895 49.6486 39.2329 50.1624 38.068C50.8624 36.4609 51.228 34.7602 51.2422 33.0439C51.4222 30.1888 51.4222 29.3478 51.4222 22.1326C51.4222 14.9173 51.4222 14.0763 51.2422 11.2212ZM44.7116 28.9273C44.6291 30.2931 44.2905 31.6384 43.7089 32.9111C43.2098 33.9728 42.4677 34.9372 41.5269 35.7471C40.5861 36.5569 39.4657 37.1957 38.2324 37.6254C36.7399 38.0981 35.1684 38.3597 33.5787 38.4C31.5475 38.4 31.0076 38.4 25.7111 38.4C20.4146 38.4 19.8747 38.4 17.8435 38.4C16.2539 38.3597 14.6823 38.0981 13.1898 37.6254C11.9148 37.2175 10.7634 36.5668 9.82164 35.722C8.89005 34.928 8.17059 33.9688 7.71333 32.9111C7.16198 31.6277 6.86643 30.2733 6.83916 28.9051C6.83916 27.1567 6.83916 26.6919 6.83916 22.1326C6.83916 17.5733 6.83916 17.1085 6.83916 15.36C6.86643 13.9918 7.16198 12.6374 7.71333 11.354C8.18714 10.2565 8.94303 9.2653 9.92449 8.45464C10.8509 7.65703 11.9641 7.03836 13.1898 6.63977C14.6823 6.16703 16.2539 5.90543 17.8435 5.86513C19.8747 5.86513 20.4146 5.86513 25.7111 5.86513C31.0076 5.86513 31.5475 5.86513 33.5787 5.86513C35.1684 5.90543 36.7399 6.16703 38.2324 6.63977C39.5074 7.04763 40.6588 7.69831 41.6006 8.54317C42.5322 9.33717 43.2516 10.2964 43.7089 11.354C44.2581 12.6388 44.562 13.9916 44.6088 15.36C44.6088 17.1085 44.6088 17.5733 44.6088 22.1326C44.6088 26.6919 44.7888 27.1567 44.7116 28.9051V28.9273ZM40.5978 12.4606C40.2917 11.7457 39.8091 11.0965 39.1832 10.5577C38.5573 10.0189 37.8031 9.60346 36.9726 9.33994C35.8322 8.99968 34.6312 8.83486 33.4244 8.85303C31.419 8.85303 30.8533 8.85303 25.7111 8.85303C20.5689 8.85303 20.0032 8.85303 17.9978 8.85303C16.7849 8.86323 15.5837 9.05805 14.4496 9.42847C13.6318 9.68002 12.8856 10.0785 12.2606 10.5975C11.6355 11.1165 11.1459 11.7441 10.8244 12.4385C10.451 13.4242 10.2686 14.4561 10.2844 15.4928C10.2844 17.2191 10.2844 17.7061 10.2844 22.1326C10.2844 26.5591 10.2844 27.046 10.2844 28.7723C10.3099 29.8152 10.5358 30.8473 10.9529 31.8266C11.2591 32.5415 11.7417 33.1908 12.3676 33.7296C12.9935 34.2683 13.7477 34.6838 14.5782 34.9473C15.6752 35.2946 16.8296 35.4889 17.9978 35.5228C20.0032 35.5228 20.5689 35.5228 25.7111 35.5228C30.8533 35.5228 31.419 35.5228 33.4244 35.5228C34.6373 35.5126 35.8385 35.3177 36.9726 34.9473C37.8031 34.6838 38.5573 34.2683 39.1832 33.7296C39.8091 33.1908 40.2917 32.5415 40.5978 31.8266C41.0282 30.8504 41.2545 29.8164 41.2663 28.7723C41.2663 27.046 41.2663 26.5591 41.2663 22.1326C41.2663 17.7061 41.2663 17.2191 41.2663 15.4928C41.2671 14.4477 41.0403 13.4117 40.5978 12.4385V12.4606ZM25.7111 30.5872C24.4225 30.5872 23.1466 30.3684 21.9564 29.9432C20.7662 29.518 19.6852 28.8949 18.7752 28.1096C17.8653 27.3242 17.1442 26.392 16.6535 25.3663C16.1627 24.3407 15.9118 23.2418 15.9152 22.1326C15.9152 20.4595 16.4919 18.824 17.5722 17.4331C18.6526 16.0423 20.188 14.9587 21.9842 14.3194C23.7804 13.6801 25.7565 13.514 27.6624 13.842C29.5683 14.1701 31.3183 14.9775 32.6909 16.1621C34.0634 17.3467 34.9968 18.8553 35.3729 20.4968C35.7489 22.1382 35.5508 23.8389 34.8034 25.3834C34.0561 26.9279 32.7933 28.2468 31.1747 29.1731C29.5562 30.0995 27.6547 30.5916 25.7111 30.5872ZM35.9956 15.3379C35.4272 15.2861 34.9012 15.0551 34.5189 14.6893C34.1367 14.3236 33.9251 13.849 33.9251 13.357C33.9251 12.865 34.1367 12.3904 34.5189 12.0247C34.9012 11.6589 35.4272 11.4279 35.9956 11.3761C36.5639 11.4279 37.0899 11.6589 37.4722 12.0247C37.8545 12.3904 38.066 12.865 38.066 13.357C38.066 13.849 37.8545 14.3236 37.4722 14.6893C37.0899 15.0551 36.5639 15.2861 35.9956 15.3379Z" fill="black"/>
</svg>
