<svg width="49" height="50" viewBox="0 0 49 50" fill="none" xmlns="http://www.w3.org/2000/svg">
<path d="M47.7067 40.2484L47.9997 40.5413V40.9523L47.9997 40.9532L47.9999 40.9636L48 40.9818L48 40.9906L48 40.992C47.9944 44.8605 44.8587 47.9944 40.9897 48L40.5747 48.0006L40.2812 47.7072L34.2524 41.6807L25.8462 33.2778C23.515 34.4702 20.8737 35.1429 18.0776 35.1429C8.64633 35.1429 1 27.5001 1 18.0716C1 8.64308 8.64605 1 18.0774 1C27.5086 1 35.155 8.64279 35.155 18.0713C35.155 20.8662 34.4822 23.5064 33.2894 25.8367L41.7125 34.2566L47.7067 40.2484ZM18.0774 26.7141C22.8532 26.7141 26.7239 22.8443 26.7239 18.0713C26.7239 13.2984 22.8532 9.42854 18.0774 9.42854C13.3016 9.42854 9.4308 13.2984 9.4308 18.0713C9.4308 22.8443 13.3016 26.7141 18.0774 26.7141Z" stroke="black" stroke-width="2"/>
</svg>
