<svg width="55" height="53" viewBox="0 0 55 53" fill="none" xmlns="http://www.w3.org/2000/svg">
<path opacity="0.53" d="M15.0381 13.25L15.0381 14.75L13.5381 14.75L3.38456 14.75C2.78192 14.75 2.25684 14.9404 1.91608 15.2072C1.5841 15.4671 1.50005 15.73 1.50005 15.9L1.50005 45.05C1.50005 46.6257 2.29727 48.2366 3.89868 49.4905C5.50888 50.7512 7.75569 51.5 10.1536 51.5L43.9987 51.5C46.3966 51.5 48.6434 50.7512 50.2536 49.4905C51.855 48.2366 52.6522 46.6257 52.6522 45.05L52.6522 15.9C52.6522 15.73 52.5682 15.4671 52.2362 15.2072C51.8954 14.9404 51.3703 14.75 50.7677 14.75L40.6142 14.75L39.1142 14.75L39.1142 13.25L39.1142 10.6C39.1142 8.3215 37.9604 6.03656 35.7242 4.28571C33.4793 2.528 30.3717 1.5 27.0761 1.5C23.7806 1.5 20.6729 2.528 18.428 4.28572C16.1919 6.03656 15.0381 8.3215 15.0381 10.6L15.0381 13.25ZM20.3071 14.75L18.8071 14.75L18.8071 13.25L18.8071 10.6C18.8071 8.66157 19.7928 6.90227 21.365 5.67129C22.9284 4.44718 24.9859 3.8 27.0761 3.8C29.1664 3.8 31.2239 4.44718 32.7873 5.67129C34.3595 6.90227 35.3452 8.66156 35.3452 10.6L35.3452 13.25L35.3452 14.75L33.8452 14.75L20.3071 14.75ZM47.3832 17.05L48.8832 17.05L48.8832 18.55L48.8832 45.05C48.8832 46.2856 48.2541 47.3709 47.3166 48.1049C46.388 48.832 45.1913 49.2 43.9987 49.2L10.1536 49.2C8.96097 49.2 7.76433 48.832 6.83564 48.1049C5.89818 47.3709 5.26907 46.2856 5.26907 45.05L5.26907 18.55L5.26907 17.05L6.76907 17.05L13.5381 17.05L15.0381 17.05L15.0381 18.55L15.0381 21.2C15.0381 21.37 15.1222 21.6329 15.4541 21.8928C15.7949 22.1596 16.32 22.35 16.9226 22.35C17.5252 22.35 18.0503 22.1596 18.3911 21.8928C18.7231 21.6329 18.8071 21.37 18.8071 21.2L18.8071 18.55L18.8071 17.05L20.3071 17.05L33.8452 17.05L35.3452 17.05L35.3452 18.55L35.3452 21.2C35.3452 21.37 35.4292 21.6329 35.7612 21.8928C36.1019 22.1596 36.627 22.35 37.2297 22.35C37.8323 22.35 38.3574 22.1596 38.6981 21.8928C39.0301 21.6329 39.1142 21.37 39.1142 21.2L39.1142 18.55L39.1142 17.05L40.6142 17.05L47.3832 17.05Z" fill="white" stroke="black" stroke-width="3"/>
</svg>
