<svg width="52" height="33" viewBox="0 0 52 33" fill="none" xmlns="http://www.w3.org/2000/svg">
<path d="M51.0926 3.83749C49.1724 4.47903 47.1417 4.90313 45.0637 5.09659C47.256 4.08798 48.8989 2.50124 49.6875 0.630729C47.6274 1.57518 45.3722 2.2406 43.02 2.59807C41.4477 1.28501 39.354 0.410971 37.0672 0.113027C34.7804 -0.184917 32.4299 0.11009 30.3842 0.951778C28.3386 1.79347 26.7136 3.13423 25.7641 4.76379C24.8145 6.39334 24.5942 8.21952 25.1376 9.95592C20.972 9.79366 16.8974 8.95838 13.1785 7.50434C9.45946 6.0503 6.17926 4.01001 3.55094 1.51603C2.62907 2.75579 2.14466 4.15979 2.14589 5.58842C2.14262 6.91516 2.5654 8.22194 3.37659 9.3924C4.18779 10.5629 5.36221 11.5607 6.79531 12.2971C5.12964 12.2621 3.49955 11.9179 2.0437 11.2937V11.3921C2.05619 13.251 2.90204 15.0495 4.4382 16.4835C5.97435 17.9174 8.10649 18.8987 10.474 19.2614C9.56263 19.475 8.61645 19.5876 7.66389 19.5959C7.00451 19.5899 6.34678 19.5439 5.69682 19.4582C6.37102 21.0572 7.6757 22.4547 9.42933 23.4561C11.183 24.4575 13.2983 25.0131 15.4811 25.0454C11.7952 27.2789 7.24463 28.4978 2.55463 28.5079C1.70071 28.5101 0.847462 28.4707 0 28.3899C4.78847 30.7709 10.3688 32.0348 16.0686 32.0295C20.002 32.0609 23.904 31.4885 27.5469 30.3456C31.1897 29.2027 34.5003 27.5122 37.2853 25.373C40.0703 23.2337 42.2739 20.6885 43.7673 17.8861C45.2608 15.0836 46.0141 12.0801 45.9833 9.05094C45.9833 8.71649 45.9833 8.36237 45.9833 8.00825C47.9879 6.85699 49.7169 5.44564 51.0926 3.83749Z" fill="black"/>
</svg>
